<mxfile host="app.diagrams.net" modified="2020-09-27T03:38:47.794Z" agent="5.0 (Windows NT 10.0; Win64; x64) AppleWebKit/537.36 (KHTML, like Gecko) Chrome/85.0.4183.121 Safari/537.36 Edg/85.0.564.63" etag="g6IcGQT81XxPH_Wh9rOa" version="13.7.5" type="github">
  <diagram id="PUXDXsYr0ae4HVIVLISm" name="Page-1">
    <mxGraphModel dx="1278" dy="532" grid="1" gridSize="10" guides="1" tooltips="1" connect="1" arrows="1" fold="1" page="1" pageScale="1" pageWidth="1100" pageHeight="850" math="0" shadow="0">
      <root>
        <mxCell id="0" />
        <mxCell id="1" parent="0" />
        <mxCell id="UOUei4V7lv_hdQ28X5KC-1" value="Penerimaan Beasiswa" style="swimlane;html=1;childLayout=stackLayout;resizeParent=1;resizeParentMax=0;horizontal=0;startSize=20;horizontalStack=0;" parent="1" vertex="1">
          <mxGeometry x="20" y="200" width="1050" height="360" as="geometry" />
        </mxCell>
        <mxCell id="UOUei4V7lv_hdQ28X5KC-2" value="Mahasiswa" style="swimlane;html=1;startSize=20;horizontal=0;" parent="UOUei4V7lv_hdQ28X5KC-1" vertex="1">
          <mxGeometry x="20" width="1030" height="120" as="geometry" />
        </mxCell>
        <mxCell id="UOUei4V7lv_hdQ28X5KC-50" value="" style="endArrow=block;endFill=1;endSize=6;html=1;" parent="UOUei4V7lv_hdQ28X5KC-2" edge="1">
          <mxGeometry width="100" relative="1" as="geometry">
            <mxPoint x="909.9982700757623" y="59.50409729500899" as="sourcePoint" />
            <mxPoint x="970" y="60.20999999999998" as="targetPoint" />
          </mxGeometry>
        </mxCell>
        <mxCell id="UOUei4V7lv_hdQ28X5KC-37" value="Melihat Pengumuman Penerima Beasiswa" style="html=1;whiteSpace=wrap;rounded=1;dropTarget=0;" parent="UOUei4V7lv_hdQ28X5KC-2" vertex="1">
          <mxGeometry x="790" y="20" width="120" height="80" as="geometry" />
        </mxCell>
        <mxCell id="UOUei4V7lv_hdQ28X5KC-39" value="" style="html=1;shape=plus;outlineConnect=0;" parent="UOUei4V7lv_hdQ28X5KC-37" vertex="1">
          <mxGeometry x="0.5" y="1" width="14" height="14" relative="1" as="geometry">
            <mxPoint x="-7" y="-14" as="offset" />
          </mxGeometry>
        </mxCell>
        <mxCell id="UOUei4V7lv_hdQ28X5KC-49" value="" style="shape=mxgraph.bpmn.shape;html=1;verticalLabelPosition=bottom;labelBackgroundColor=#ffffff;verticalAlign=top;align=center;perimeter=ellipsePerimeter;outlineConnect=0;outline=end;symbol=general;" parent="UOUei4V7lv_hdQ28X5KC-2" vertex="1">
          <mxGeometry x="970" y="35" width="50" height="50" as="geometry" />
        </mxCell>
        <mxCell id="UOUei4V7lv_hdQ28X5KC-6" value="" style="shape=mxgraph.bpmn.shape;html=1;verticalLabelPosition=bottom;labelBackgroundColor=#ffffff;verticalAlign=top;align=center;perimeter=ellipsePerimeter;outlineConnect=0;outline=standard;symbol=general;" parent="UOUei4V7lv_hdQ28X5KC-2" vertex="1">
          <mxGeometry x="50" y="35" width="50" height="50" as="geometry" />
        </mxCell>
        <mxCell id="UOUei4V7lv_hdQ28X5KC-7" value="Melakukan Pendaftaran" style="html=1;whiteSpace=wrap;rounded=1;dropTarget=0;" parent="UOUei4V7lv_hdQ28X5KC-2" vertex="1">
          <mxGeometry x="160" y="20" width="120" height="80" as="geometry" />
        </mxCell>
        <mxCell id="UOUei4V7lv_hdQ28X5KC-8" value="" style="html=1;shape=mxgraph.bpmn.user_task;outlineConnect=0;" parent="UOUei4V7lv_hdQ28X5KC-7" vertex="1">
          <mxGeometry width="14" height="14" relative="1" as="geometry">
            <mxPoint x="7" y="7" as="offset" />
          </mxGeometry>
        </mxCell>
        <mxCell id="UOUei4V7lv_hdQ28X5KC-10" value="Pengumpulan Berkas" style="html=1;whiteSpace=wrap;rounded=1;dropTarget=0;" parent="UOUei4V7lv_hdQ28X5KC-2" vertex="1">
          <mxGeometry x="340" y="20" width="120" height="80" as="geometry" />
        </mxCell>
        <mxCell id="UOUei4V7lv_hdQ28X5KC-12" value="" style="html=1;shape=plus;outlineConnect=0;" parent="UOUei4V7lv_hdQ28X5KC-10" vertex="1">
          <mxGeometry x="0.5" y="1" width="14" height="14" relative="1" as="geometry">
            <mxPoint x="-7" y="-14" as="offset" />
          </mxGeometry>
        </mxCell>
        <mxCell id="UOUei4V7lv_hdQ28X5KC-18" value="" style="endArrow=block;endFill=1;endSize=6;html=1;exitX=1;exitY=0.5;exitDx=0;exitDy=0;entryX=0;entryY=0.5;entryDx=0;entryDy=0;" parent="UOUei4V7lv_hdQ28X5KC-2" source="UOUei4V7lv_hdQ28X5KC-7" target="UOUei4V7lv_hdQ28X5KC-10" edge="1">
          <mxGeometry width="100" relative="1" as="geometry">
            <mxPoint x="460" y="80" as="sourcePoint" />
            <mxPoint x="560" y="80" as="targetPoint" />
          </mxGeometry>
        </mxCell>
        <mxCell id="UOUei4V7lv_hdQ28X5KC-3" value="Penyeleksi" style="swimlane;html=1;startSize=20;horizontal=0;" parent="UOUei4V7lv_hdQ28X5KC-1" vertex="1">
          <mxGeometry x="20" y="120" width="1030" height="120" as="geometry" />
        </mxCell>
        <mxCell id="PxhExJ0uEVXjWFVnbcn_-14" value="Upload file ke database" style="html=1;whiteSpace=wrap;rounded=1;dropTarget=0;" vertex="1" parent="UOUei4V7lv_hdQ28X5KC-3">
          <mxGeometry x="520" y="20" width="120" height="80" as="geometry" />
        </mxCell>
        <mxCell id="PxhExJ0uEVXjWFVnbcn_-15" value="" style="html=1;shape=plus;outlineConnect=0;" vertex="1" parent="PxhExJ0uEVXjWFVnbcn_-14">
          <mxGeometry x="0.5" y="1" width="14" height="14" relative="1" as="geometry">
            <mxPoint x="-7" y="-14" as="offset" />
          </mxGeometry>
        </mxCell>
        <mxCell id="PxhExJ0uEVXjWFVnbcn_-6" value="" style="shape=note;whiteSpace=wrap;size=16;html=1;dropTarget=0;" vertex="1" parent="UOUei4V7lv_hdQ28X5KC-3">
          <mxGeometry x="700" y="30" width="40" height="60" as="geometry" />
        </mxCell>
        <mxCell id="PxhExJ0uEVXjWFVnbcn_-7" value="" style="html=1;shape=singleArrow;arrowWidth=0.4;arrowSize=0.4;outlineConnect=0;" vertex="1" parent="PxhExJ0uEVXjWFVnbcn_-6">
          <mxGeometry width="14" height="14" relative="1" as="geometry">
            <mxPoint x="2" y="2" as="offset" />
          </mxGeometry>
        </mxCell>
        <mxCell id="UOUei4V7lv_hdQ28X5KC-19" value="Penetapan Data Pemohon Beasiswa" style="html=1;whiteSpace=wrap;rounded=1;dropTarget=0;" parent="UOUei4V7lv_hdQ28X5KC-3" vertex="1">
          <mxGeometry x="160" y="20" width="120" height="80" as="geometry" />
        </mxCell>
        <mxCell id="UOUei4V7lv_hdQ28X5KC-20" value="" style="html=1;shape=mxgraph.bpmn.user_task;outlineConnect=0;" parent="UOUei4V7lv_hdQ28X5KC-19" vertex="1">
          <mxGeometry width="14" height="14" relative="1" as="geometry">
            <mxPoint x="7" y="7" as="offset" />
          </mxGeometry>
        </mxCell>
        <mxCell id="UOUei4V7lv_hdQ28X5KC-25" value="Melakukan Seleksi" style="html=1;whiteSpace=wrap;rounded=1;dropTarget=0;" parent="UOUei4V7lv_hdQ28X5KC-3" vertex="1">
          <mxGeometry x="340" y="20" width="120" height="80" as="geometry" />
        </mxCell>
        <mxCell id="UOUei4V7lv_hdQ28X5KC-27" value="" style="html=1;shape=plus;outlineConnect=0;" parent="UOUei4V7lv_hdQ28X5KC-25" vertex="1">
          <mxGeometry x="0.5" y="1" width="14" height="14" relative="1" as="geometry">
            <mxPoint x="-7" y="-14" as="offset" />
          </mxGeometry>
        </mxCell>
        <mxCell id="UOUei4V7lv_hdQ28X5KC-31" value="" style="endArrow=block;endFill=1;endSize=6;html=1;exitX=1;exitY=0.5;exitDx=0;exitDy=0;entryX=0;entryY=0.5;entryDx=0;entryDy=0;" parent="UOUei4V7lv_hdQ28X5KC-3" source="UOUei4V7lv_hdQ28X5KC-19" target="UOUei4V7lv_hdQ28X5KC-25" edge="1">
          <mxGeometry width="100" relative="1" as="geometry">
            <mxPoint x="460" y="160" as="sourcePoint" />
            <mxPoint x="560" y="160" as="targetPoint" />
          </mxGeometry>
        </mxCell>
        <mxCell id="UOUei4V7lv_hdQ28X5KC-34" value="Mengumunkan Hasil Seleksi" style="html=1;whiteSpace=wrap;rounded=1;dropTarget=0;" parent="UOUei4V7lv_hdQ28X5KC-3" vertex="1">
          <mxGeometry x="790" y="20" width="120" height="80" as="geometry" />
        </mxCell>
        <mxCell id="UOUei4V7lv_hdQ28X5KC-36" value="" style="html=1;shape=plus;outlineConnect=0;" parent="UOUei4V7lv_hdQ28X5KC-34" vertex="1">
          <mxGeometry x="0.5" y="1" width="14" height="14" relative="1" as="geometry">
            <mxPoint x="-7" y="-14" as="offset" />
          </mxGeometry>
        </mxCell>
        <mxCell id="PxhExJ0uEVXjWFVnbcn_-17" value="" style="startArrow=oval;startFill=0;startSize=7;endArrow=block;endFill=0;endSize=10;dashed=1;html=1;exitX=1;exitY=0.5;exitDx=0;exitDy=0;entryX=0;entryY=0.5;entryDx=0;entryDy=0;entryPerimeter=0;" edge="1" parent="UOUei4V7lv_hdQ28X5KC-3" source="PxhExJ0uEVXjWFVnbcn_-14" target="PxhExJ0uEVXjWFVnbcn_-6">
          <mxGeometry width="100" relative="1" as="geometry">
            <mxPoint x="460" y="-20" as="sourcePoint" />
            <mxPoint x="560" y="-20" as="targetPoint" />
          </mxGeometry>
        </mxCell>
        <mxCell id="UOUei4V7lv_hdQ28X5KC-4" value="Bag. Kemahasiswaan" style="swimlane;html=1;startSize=20;horizontal=0;" parent="UOUei4V7lv_hdQ28X5KC-1" vertex="1">
          <mxGeometry x="20" y="240" width="1030" height="120" as="geometry" />
        </mxCell>
        <mxCell id="UOUei4V7lv_hdQ28X5KC-28" value="Menyetujui Pemohon Beasiswa" style="html=1;whiteSpace=wrap;rounded=1;dropTarget=0;" parent="UOUei4V7lv_hdQ28X5KC-4" vertex="1">
          <mxGeometry x="160" y="20" width="120" height="80" as="geometry" />
        </mxCell>
        <mxCell id="UOUei4V7lv_hdQ28X5KC-29" value="" style="html=1;shape=mxgraph.bpmn.user_task;outlineConnect=0;" parent="UOUei4V7lv_hdQ28X5KC-28" vertex="1">
          <mxGeometry width="14" height="14" relative="1" as="geometry">
            <mxPoint x="7" y="7" as="offset" />
          </mxGeometry>
        </mxCell>
        <mxCell id="UOUei4V7lv_hdQ28X5KC-52" value="" style="shape=mxgraph.bpmn.shape;html=1;verticalLabelPosition=bottom;labelBackgroundColor=#ffffff;verticalAlign=top;align=center;perimeter=ellipsePerimeter;outlineConnect=0;outline=end;symbol=general;" parent="UOUei4V7lv_hdQ28X5KC-4" vertex="1">
          <mxGeometry x="970" y="35" width="50" height="50" as="geometry" />
        </mxCell>
        <mxCell id="UOUei4V7lv_hdQ28X5KC-40" value="Melihat Penerima Beasiswa" style="html=1;whiteSpace=wrap;rounded=1;dropTarget=0;" parent="UOUei4V7lv_hdQ28X5KC-4" vertex="1">
          <mxGeometry x="790" y="20" width="120" height="80" as="geometry" />
        </mxCell>
        <mxCell id="UOUei4V7lv_hdQ28X5KC-41" value="" style="html=1;shape=mxgraph.bpmn.user_task;outlineConnect=0;" parent="UOUei4V7lv_hdQ28X5KC-40" vertex="1">
          <mxGeometry width="14" height="14" relative="1" as="geometry">
            <mxPoint x="7" y="7" as="offset" />
          </mxGeometry>
        </mxCell>
        <mxCell id="UOUei4V7lv_hdQ28X5KC-51" value="" style="endArrow=block;endFill=1;endSize=6;html=1;" parent="UOUei4V7lv_hdQ28X5KC-4" edge="1">
          <mxGeometry width="100" relative="1" as="geometry">
            <mxPoint x="909.9982700757623" y="59.50409729500893" as="sourcePoint" />
            <mxPoint x="970" y="60.210000000000036" as="targetPoint" />
          </mxGeometry>
        </mxCell>
        <mxCell id="UOUei4V7lv_hdQ28X5KC-22" value="" style="endArrow=block;endFill=1;endSize=6;html=1;exitX=0.25;exitY=1;exitDx=0;exitDy=0;entryX=0.5;entryY=0;entryDx=0;entryDy=0;" parent="UOUei4V7lv_hdQ28X5KC-1" source="UOUei4V7lv_hdQ28X5KC-12" target="UOUei4V7lv_hdQ28X5KC-19" edge="1">
          <mxGeometry width="100" relative="1" as="geometry">
            <mxPoint x="480" y="80" as="sourcePoint" />
            <mxPoint x="580" y="80" as="targetPoint" />
            <Array as="points">
              <mxPoint x="417" y="130" />
              <mxPoint x="240" y="130" />
            </Array>
          </mxGeometry>
        </mxCell>
        <mxCell id="UOUei4V7lv_hdQ28X5KC-33" value="" style="endArrow=block;endFill=1;endSize=6;html=1;exitX=0.5;exitY=1;exitDx=0;exitDy=0;entryX=0.5;entryY=0;entryDx=0;entryDy=0;" parent="UOUei4V7lv_hdQ28X5KC-1" source="UOUei4V7lv_hdQ28X5KC-27" target="UOUei4V7lv_hdQ28X5KC-28" edge="1">
          <mxGeometry width="100" relative="1" as="geometry">
            <mxPoint x="480" y="150" as="sourcePoint" />
            <mxPoint x="580" y="150" as="targetPoint" />
            <Array as="points">
              <mxPoint x="420" y="250" />
              <mxPoint x="240" y="250" />
            </Array>
          </mxGeometry>
        </mxCell>
        <mxCell id="UOUei4V7lv_hdQ28X5KC-47" value="" style="endArrow=block;endFill=1;endSize=6;html=1;entryX=0.5;entryY=1;entryDx=0;entryDy=0;exitX=0.5;exitY=0;exitDx=0;exitDy=0;" parent="UOUei4V7lv_hdQ28X5KC-1" source="UOUei4V7lv_hdQ28X5KC-34" target="UOUei4V7lv_hdQ28X5KC-37" edge="1">
          <mxGeometry width="100" relative="1" as="geometry">
            <mxPoint x="480" y="130" as="sourcePoint" />
            <mxPoint x="580" y="130" as="targetPoint" />
          </mxGeometry>
        </mxCell>
        <mxCell id="UOUei4V7lv_hdQ28X5KC-48" value="" style="endArrow=block;endFill=1;endSize=6;html=1;entryX=0.5;entryY=0;entryDx=0;entryDy=0;exitX=0.5;exitY=1;exitDx=0;exitDy=0;" parent="UOUei4V7lv_hdQ28X5KC-1" source="UOUei4V7lv_hdQ28X5KC-34" target="UOUei4V7lv_hdQ28X5KC-40" edge="1">
          <mxGeometry width="100" relative="1" as="geometry">
            <mxPoint x="480" y="130" as="sourcePoint" />
            <mxPoint x="580" y="130" as="targetPoint" />
          </mxGeometry>
        </mxCell>
        <mxCell id="PxhExJ0uEVXjWFVnbcn_-16" value="" style="endArrow=block;endFill=1;endSize=6;html=1;entryX=0.25;entryY=1;entryDx=0;entryDy=0;exitX=1;exitY=0.5;exitDx=0;exitDy=0;" edge="1" parent="UOUei4V7lv_hdQ28X5KC-1" source="UOUei4V7lv_hdQ28X5KC-28" target="PxhExJ0uEVXjWFVnbcn_-15">
          <mxGeometry width="100" relative="1" as="geometry">
            <mxPoint x="480" y="90" as="sourcePoint" />
            <mxPoint x="580" y="90" as="targetPoint" />
            <Array as="points">
              <mxPoint x="500" y="300" />
              <mxPoint x="500" y="270" />
              <mxPoint x="597" y="270" />
            </Array>
          </mxGeometry>
        </mxCell>
        <mxCell id="UOUei4V7lv_hdQ28X5KC-5" value="Aplikasi" style="swimlane;startSize=20;horizontal=0;" parent="1" vertex="1">
          <mxGeometry x="20" y="20" width="1050" height="120" as="geometry" />
        </mxCell>
        <mxCell id="UOUei4V7lv_hdQ28X5KC-14" value="" style="shape=datastore;whiteSpace=wrap;html=1;" parent="UOUei4V7lv_hdQ28X5KC-5" vertex="1">
          <mxGeometry x="500" y="30" width="60" height="60" as="geometry" />
        </mxCell>
        <mxCell id="PxhExJ0uEVXjWFVnbcn_-19" value="SPK Penerima Beasiswa" style="text;html=1;strokeColor=none;fillColor=none;align=center;verticalAlign=middle;whiteSpace=wrap;rounded=0;" vertex="1" parent="UOUei4V7lv_hdQ28X5KC-5">
          <mxGeometry x="430" y="10" width="200" height="20" as="geometry" />
        </mxCell>
        <mxCell id="UOUei4V7lv_hdQ28X5KC-17" value="" style="endArrow=block;endFill=1;endSize=6;html=1;" parent="1" source="UOUei4V7lv_hdQ28X5KC-6" edge="1">
          <mxGeometry width="100" relative="1" as="geometry">
            <mxPoint x="500" y="280" as="sourcePoint" />
            <mxPoint x="200" y="261" as="targetPoint" />
          </mxGeometry>
        </mxCell>
        <mxCell id="PxhExJ0uEVXjWFVnbcn_-20" value="" style="endArrow=none;dashed=1;html=1;dashPattern=1 3;strokeWidth=2;entryX=0;entryY=0.5;entryDx=0;entryDy=0;exitX=0.5;exitY=0;exitDx=0;exitDy=0;" edge="1" parent="1" source="UOUei4V7lv_hdQ28X5KC-7" target="UOUei4V7lv_hdQ28X5KC-14">
          <mxGeometry width="50" height="50" relative="1" as="geometry">
            <mxPoint x="520" y="300" as="sourcePoint" />
            <mxPoint x="570" y="250" as="targetPoint" />
            <Array as="points">
              <mxPoint x="260" y="80" />
            </Array>
          </mxGeometry>
        </mxCell>
        <mxCell id="PxhExJ0uEVXjWFVnbcn_-21" value="" style="endArrow=none;dashed=1;html=1;dashPattern=1 3;strokeWidth=2;entryX=0;entryY=0.5;entryDx=0;entryDy=0;exitX=0;exitY=0.5;exitDx=0;exitDy=0;" edge="1" parent="1" source="UOUei4V7lv_hdQ28X5KC-19" target="UOUei4V7lv_hdQ28X5KC-14">
          <mxGeometry width="50" height="50" relative="1" as="geometry">
            <mxPoint x="520" y="300" as="sourcePoint" />
            <mxPoint x="570" y="250" as="targetPoint" />
            <Array as="points">
              <mxPoint x="160" y="380" />
              <mxPoint x="160" y="80" />
            </Array>
          </mxGeometry>
        </mxCell>
        <mxCell id="PxhExJ0uEVXjWFVnbcn_-22" value="" style="endArrow=none;dashed=1;html=1;dashPattern=1 3;strokeWidth=2;entryX=0;entryY=0.5;entryDx=0;entryDy=0;exitX=0;exitY=0.5;exitDx=0;exitDy=0;" edge="1" parent="1" source="UOUei4V7lv_hdQ28X5KC-28" target="UOUei4V7lv_hdQ28X5KC-14">
          <mxGeometry width="50" height="50" relative="1" as="geometry">
            <mxPoint x="520" y="300" as="sourcePoint" />
            <mxPoint x="570" y="250" as="targetPoint" />
            <Array as="points">
              <mxPoint x="160" y="500" />
              <mxPoint x="160" y="80" />
            </Array>
          </mxGeometry>
        </mxCell>
        <mxCell id="PxhExJ0uEVXjWFVnbcn_-23" value="" style="endArrow=none;dashed=1;html=1;dashPattern=1 3;strokeWidth=2;entryX=0.5;entryY=1;entryDx=0;entryDy=0;exitX=0;exitY=0.5;exitDx=0;exitDy=0;" edge="1" parent="1" source="UOUei4V7lv_hdQ28X5KC-40" target="UOUei4V7lv_hdQ28X5KC-14">
          <mxGeometry width="50" height="50" relative="1" as="geometry">
            <mxPoint x="520" y="300" as="sourcePoint" />
            <mxPoint x="570" y="250" as="targetPoint" />
            <Array as="points">
              <mxPoint x="550" y="500" />
            </Array>
          </mxGeometry>
        </mxCell>
        <mxCell id="PxhExJ0uEVXjWFVnbcn_-24" value="" style="endArrow=none;dashed=1;html=1;dashPattern=1 3;strokeWidth=2;exitX=0;exitY=0.5;exitDx=0;exitDy=0;" edge="1" parent="1" source="UOUei4V7lv_hdQ28X5KC-34">
          <mxGeometry width="50" height="50" relative="1" as="geometry">
            <mxPoint x="520" y="300" as="sourcePoint" />
            <mxPoint x="550" y="110" as="targetPoint" />
            <Array as="points">
              <mxPoint x="800" y="380" />
              <mxPoint x="800" y="180" />
              <mxPoint x="550" y="180" />
            </Array>
          </mxGeometry>
        </mxCell>
        <mxCell id="PxhExJ0uEVXjWFVnbcn_-25" value="" style="endArrow=none;dashed=1;html=1;dashPattern=1 3;strokeWidth=2;exitX=0;exitY=0;exitDx=12;exitDy=0;exitPerimeter=0;" edge="1" parent="1" source="PxhExJ0uEVXjWFVnbcn_-6">
          <mxGeometry width="50" height="50" relative="1" as="geometry">
            <mxPoint x="520" y="300" as="sourcePoint" />
            <mxPoint x="550" y="110" as="targetPoint" />
            <Array as="points">
              <mxPoint x="752" y="180" />
              <mxPoint x="550" y="180" />
            </Array>
          </mxGeometry>
        </mxCell>
        <mxCell id="PxhExJ0uEVXjWFVnbcn_-26" value="" style="endArrow=none;dashed=1;html=1;dashPattern=1 3;strokeWidth=2;entryX=1;entryY=0.5;entryDx=0;entryDy=0;exitX=0.5;exitY=0;exitDx=0;exitDy=0;" edge="1" parent="1" source="UOUei4V7lv_hdQ28X5KC-37" target="UOUei4V7lv_hdQ28X5KC-14">
          <mxGeometry width="50" height="50" relative="1" as="geometry">
            <mxPoint x="520" y="300" as="sourcePoint" />
            <mxPoint x="570" y="250" as="targetPoint" />
            <Array as="points">
              <mxPoint x="890" y="80" />
            </Array>
          </mxGeometry>
        </mxCell>
      </root>
    </mxGraphModel>
  </diagram>
</mxfile>
